<?xml version="1.0" encoding="UTF-8"?>
<!DOCTYPE svg PUBLIC "-//W3C//DTD SVG 1.1//EN" "http://www.w3.org/Graphics/SVG/1.1/DTD/svg11.dtd">
<!-- Creator: CorelDRAW 2019 (64-Bit) -->
<svg xmlns="http://www.w3.org/2000/svg" xml:space="preserve" width="169.333mm" height="74.5066mm" version="1.1" style="shape-rendering:geometricPrecision; text-rendering:geometricPrecision; image-rendering:optimizeQuality; fill-rule:evenodd; clip-rule:evenodd"
viewBox="0 0 16933320 7450660"
 xmlns:xlink="http://www.w3.org/1999/xlink">
 <defs>
  <style type="text/css">
   <![CDATA[
    .str0 {stroke:white;stroke-width:20000;stroke-miterlimit:22.9256}
    .fil0 {fill:#0101FA}
    .fil4 {fill:#1014CF}
    .fil5 {fill:#95148E}
    .fil3 {fill:#FA0201}
    .fil2 {fill:white}
    .fil1 {fill:white}
   ]]>
  </style>
 </defs>
 <g id="Слой_x0020_1">
  <metadata id="CorelCorpID_0Corel-Layer"/>
  <path class="fil0" d="M1353650 4399080c-45370,-14020 -20480,2910 -47650,-27670 14290,-70600 12430,-53610 61120,-84190l-52600 -70430 61640 -7600c-4250,-2150 -10330,-3760 -13510,-4620 -114520,-31170 -39140,34520 -63450,-25750l23910 -11170c-3030,-92280 -4120,-58560 -30520,-117910 109110,24750 43550,-10060 122850,-16540 63000,-5150 70830,33440 119370,58770 -7320,-26750 -14490,-38230 -11710,-62790 6070,-53460 130,-15920 23850,-47020 50840,-36140 29200,-28220 101760,-15020 92390,193550 1230,274580 245270,361010 -17030,-88380 -80280,-205620 -42480,-284620 24600,-28150 80010,-38740 109100,27860 13180,30210 65010,305010 91320,347250 147220,236420 825010,-160710 601280,-405790 -92390,-101200 -310950,-247600 -219100,-313130 86600,-61770 127300,108370 258410,160830 -1380,-165890 23840,-165060 -71000,-254750 -50570,-47820 -136170,-92450 -109120,-185110 95320,-46340 86760,26660 178780,64070 1090,-79970 -20040,-200330 71600,-193240 82080,6340 59510,118670 60110,194910 101930,-44450 53530,-78110 152420,-85320 88070,79960 -15600,141940 -66070,189950 -86300,82110 -106740,98770 -79970,274320 141000,-114230 154890,-193250 261030,-160810 44030,108180 -87420,180910 -229400,325810 -198840,202950 368930,594330 578830,414700 72990,-62460 90450,-329090 144370,-418740 176460,-6400 87690,76990 42150,301250 251650,-71350 145040,-205870 249670,-366410l65400 -5100c53130,65860 31150,87930 9440,176640 106910,-28190 127110,-108270 218770,-30830 7380,118160 -64220,87890 -139520,155960 51920,38490 202210,57730 111870,144050 -113830,85240 -224070,-151540 -445430,50620 74590,47420 197600,36920 265350,97710 9250,197580 -210720,22420 -407460,4620 -164070,-14850 -227850,211050 -226010,368330 1910,162750 77460,371880 236280,345340 215550,-36020 416060,-180140 396210,11140 -63040,39390 -207960,47720 -265520,97520 80880,47940 115480,99540 227680,70910 99940,-25500 153360,-65790 239810,-25880l6030 80950 -143830 48780c49970,52500 220380,108750 120480,184170 -72700,38030 -114310,-27580 -193560,-50410 18720,91450 68920,181790 -65680,172230 -57000,-71450 -49410,-144220 -82520,-237590 -29160,-82160 -132190,-112350 -178190,-131150 11710,34550 37730,129270 51850,193420 19390,88190 1840,118450 -86430,110670 -70900,-83920 -67060,-341180 -145240,-414410 -103980,-97390 -319950,-30080 -425680,42880 -521340,359800 137730,523410 83930,669220 -66130,73070 -83640,43220 -142340,-17610 -65800,-68210 -69610,-88600 -139680,-118930 3540,209860 -17990,174300 100300,287270 69020,65870 150480,105690 37400,178960 -76140,-20950 -62840,-54150 -135440,-89690 -3120,120990 31610,204570 -103640,191980 -35980,-54380 -27300,-107850 -31340,-190120 -58440,29540 -34870,30770 -77850,61440 -74000,52810 -122850,670 -102430,-69150 4560,-15610 24700,-37700 35500,-48820 171530,-176500 151350,-98230 148170,-324620 -30410,20250 -82140,75700 -109020,104050 -44970,47390 -59280,88920 -156040,63480 -55550,-127530 78800,-147650 238600,-337980 193150,-230080 -488640,-622130 -620120,-376310 -90600,169400 -20530,418060 -199360,385640 -37410,-85150 19870,-197450 42830,-301060 -42500,15690 -92300,40500 -120290,59200 -134430,89820 -26650,320610 -201870,310140 -53920,-72630 -22880,-81980 -3560,-175390 -72810,26330 -124270,88930 -192370,51850 -40020,-29580 -40620,-68300 5980,-105970 27570,-22310 73780,-29820 112910,-79650 -100900,-27650 -185010,-44800 -114000,-149140 219840,-20030 246050,142970 446200,-37690 -51780,-18050 -119950,-34800 -177910,-50330 -63800,-17090 -132930,-47160 -75580,-110370 85370,-81940 334760,96420 455050,53330 129390,-46370 177880,-252760 159810,-413820 -68840,-613660 -584740,-18030 -636150,-275580 39340,-76080 190280,-90490 275460,-115360 -210770,-207510 -300540,19480 -469510,-51640zm3616800 827690c-34010,-61960 -63380,-750840 -217090,-1076060 -153010,-323770 -153240,-316560 -341930,-581430 -25710,-36120 -52210,-78610 -81460,-113370l-228560 -299550c-48150,-21630 -72560,-57270 -88220,-103980l-629000 -711240c-307120,-338810 -611550,-645190 -637110,-1197290 -11670,-252090 49700,-544070 160480,-766040 16120,-32240 18610,-24730 41120,-74340l-602270 615500c-272590,298230 -508380,640330 -710650,993120 -124250,216660 -224800,396460 -337220,636460 -374400,799370 -806580,2177590 -503100,3175250 739770,2431910 4080990,1849350 4175010,-497030z"/>
  <path class="fil1 str0" d="M11616500 3333610c22970,35980 508980,1890880 562820,2161130l664200 -500c29150,-169950 95960,-374630 138590,-545830 66370,-266490 378560,-1536310 428800,-1613810l4250 2159990 728370 230 -1700 -2904830 -1176910 6910 -223770 878030c-38990,154120 -189450,764870 -232640,864770l-457580 -1749240 -1172530 1310 2660 2903490 731490 1280 3950 -2162930z"/>
  <path class="fil1 str0" d="M7725150 4526360c-17830,127200 60630,348750 108760,447290 55060,112700 155270,246510 238650,314050 410890,332850 1403130,326600 1802790,75160 569190,-358080 631300,-1068000 169550,-1447610 -204800,-168380 -503720,-250520 -797850,-322520 -132990,-32560 -325510,-64310 -450280,-117260 -348150,-147770 -18180,-538460 391390,-358370 134350,59070 181310,163510 219700,332120l840900 -46180c-26670,-707440 -709970,-900140 -1326640,-857430 -380120,26330 -596870,72940 -832330,268380 -180430,149730 -335900,460160 -232580,807860 78170,263070 305640,428320 570330,531790 287190,112270 679970,181860 835630,250970 353960,157170 231340,540350 -116190,567710 -368310,28990 -535290,-179260 -581260,-498830l-840570 52870z"/>
  <polygon class="fil1 str0" points="14872210,5495070 15763910,5492460 15762540,2590600 14867800,2591920 "/>
  <polygon class="fil1 str0" points="6226270,5495850 7117250,5488440 7118840,2590770 6222990,2591630 "/>
  <path class="fil2" d="M1546950 3982160l22800 153890c-85680,-28580 -182300,-127320 -218300,-27380 -25910,71870 92380,106150 145530,153820l-148010 52630 4680 83960c168970,71120 258740,-155870 469510,51640 -85180,24870 -236120,39280 -275460,115360 51410,257550 567310,-338080 636150,275580 18070,161060 -30420,367450 -159810,413820 -120290,43090 -369680,-135270 -455050,-53330 -57350,63210 11780,93280 75580,110370 57960,15530 126130,32280 177910,50330 -200150,180660 -226360,17660 -446200,37690 -71010,104340 13100,121490 114000,149140 -39130,49830 -85340,57340 -112910,79650 -46600,37670 -46000,76390 -5980,105970 68100,37080 119560,-25520 192370,-51850 -19320,93410 -50360,102760 3560,175390 175220,10470 67440,-220320 201870,-310140 27990,-18700 77790,-43510 120290,-59200 -22960,103610 -80240,215910 -42830,301060 178830,32420 108760,-216240 199360,-385640 131480,-245820 813270,146230 620120,376310 -159800,190330 -294150,210450 -238600,337980 96760,25440 111070,-16090 156040,-63480 26880,-28350 78610,-83800 109020,-104050 3180,226390 23360,148120 -148170,324620 -10800,11120 -30940,33210 -35500,48820 -20420,69820 28430,121960 102430,69150 42980,-30670 19410,-31900 77850,-61440 4040,82270 -4640,135740 31340,190120 135250,12590 100520,-70990 103640,-191980 72600,35540 59300,68740 135440,89690 113080,-73270 31620,-113090 -37400,-178960 -118290,-112970 -96760,-77410 -100300,-287270 70070,30330 73880,50720 139680,118930 58700,60830 76210,90680 142340,17610 53800,-145810 -605270,-309420 -83930,-669220 105730,-72960 321700,-140270 425680,-42880 78180,73230 74340,330490 145240,414410 88270,7780 105820,-22480 86430,-110670 -14120,-64150 -40140,-158870 -51850,-193420 46000,18800 149030,48990 178190,131150 33110,93370 25520,166140 82520,237590 134600,9560 84400,-80780 65680,-172230 79250,22830 120860,88440 193560,50410 99900,-75420 -70510,-131670 -120480,-184170l143830 -48780 -6030 -80950c-86450,-39910 -139870,380 -239810,25880 -112200,28630 -146800,-22970 -227680,-70910 57560,-49800 202480,-58130 265520,-97520 19850,-191280 -180660,-47160 -396210,-11140 -158820,26540 -234370,-182590 -236280,-345340 -1840,-157280 61940,-383180 226010,-368330 196740,17800 416710,192960 407460,-4620 -67750,-60790 -190760,-50290 -265350,-97710 221360,-202160 331600,34620 445430,-50620 90340,-86320 -59950,-105560 -111870,-144050 75300,-68070 146900,-37800 139520,-155960 -91660,-77440 -111860,2640 -218770,30830 21710,-88710 43690,-110780 -9440,-176640l-65400 5100c-104630,160540 1980,295060 -249670,366410 45540,-224260 134310,-307650 -42150,-301250 -53920,89650 -71380,356280 -144370,418740 -209900,179630 -777670,-211750 -578830,-414700 141980,-144900 273430,-217630 229400,-325810 -106140,-32440 -120030,46580 -261030,160810 -26770,-175550 -6330,-192210 79970,-274320 50470,-48010 154140,-109990 66070,-189950 -98890,7210 -50490,40870 -152420,85320 -600,-76240 21970,-188570 -60110,-194910 -91640,-7090 -70510,113270 -71600,193240 -92020,-37410 -83460,-110410 -178780,-64070 -27050,92660 58550,137290 109120,185110 94840,89690 69620,88860 71000,254750 -131110,-52460 -171810,-222600 -258410,-160830 -91850,65530 126710,211930 219100,313130 223730,245080 -454060,642210 -601280,405790 -26310,-42240 -78140,-317040 -91320,-347250 -29090,-66600 -84500,-56010 -109100,-27860 -37800,79000 25450,196240 42480,284620 -244040,-86430 -152880,-167460 -245270,-361010 -72560,-13200 -50920,-21120 -101760,15020zm1277100 1415690l-850 -266590 103580 -48220c56220,30630 169590,93880 214230,131930l-165770 80720c-71620,40200 -81590,73180 -151190,102160zm-459980 -182880l221410 -133040 97620 52670 3510 265900c-54680,-24530 -29490,-12490 -73320,-50160 -120850,-103850 -177330,-80170 -249220,-135370zm297150 -234080c-52300,-235410 158480,-200870 193390,-129650 32300,65890 -4160,128160 -43610,151080 -61930,35980 -113450,2960 -149780,-21430zm-140040 -4560l-229990 116320c23330,-172820 16610,-198340 4580,-369250l221930 134660 3480 118270zm473620 -133580c65320,-32260 154720,-117320 233310,-127410 -34200,121740 -30880,256550 -2910,382330l-227680 -130860 -2720 -124060zm-166310 -426350c57580,29600 86970,69480 154830,108870 52750,30640 110020,40810 166560,73250 -51060,46500 -150290,110380 -222700,134900 -31510,-15480 -65790,-34810 -98480,-49720l460 -182520 -670 -84780zm-240510 91870l105850 -94680 -1510 262090 -93230 53280c-2130,-3600 -8340,4410 -12570,6480 -26310,-15430 -55030,-33230 -86160,-50180l-78330 -60280c-59130,-6210 8850,14250 -33320,-9740 -59220,-33640 34300,54900 -14830,-18830l214100 -88140z"/>
  <path class="fil3" d="M2948680 303470c-22510,49610 -25000,42100 -41120,74340 -110780,221970 -172150,513950 -160480,766040 25560,552100 329990,858480 637110,1197290l629000 711240c62500,15640 73290,32400 88220,103980l228560 299550c29250,34760 55750,77250 81460,113370 188690,264870 188920,257660 341930,581430 153710,325220 183080,1014100 217090,1076060 56290,-94070 98610,-669830 101950,-822880 36170,-1660680 -1015020,-2031310 -1690700,-2887910 -519200,-658210 -121210,-950470 -90510,-1415450 -84230,27050 -254450,152480 -342510,202940z"/>
  <path class="fil0" d="M2994800 4842750l2720 124060 227680 130860c-27970,-125780 -31290,-260590 2910,-382330 -78590,10090 -167990,95150 -233310,127410z"/>
  <path class="fil0" d="M2829160 4501180l-460 182520c32690,14910 66970,34240 98480,49720 72410,-24520 171640,-88400 222700,-134900 -56540,-32440 -113810,-42610 -166560,-73250 -67860,-39390 -97250,-79270 -154830,-108870l670 84780z"/>
  <path class="fil0" d="M2824050 5397850c69600,-28980 79570,-61960 151190,-102160l165770 -80720c-44640,-38050 -158010,-101300 -214230,-131930l-103580 48220 850 266590z"/>
  <path class="fil0" d="M2364070 5214970c71890,55200 128370,31520 249220,135370 43830,37670 18640,25630 73320,50160l-3510 -265900 -97620 -52670 -221410 133040z"/>
  <path class="fil0" d="M2291190 5092650l229990 -116320 -3480 -118270 -221930 -134660c12030,170910 18750,196430 -4580,369250z"/>
  <path class="fil0" d="M2661220 4980890c36330,24390 87850,57410 149780,21430 39450,-22920 75910,-85190 43610,-151080 -34910,-71220 -245690,-105760 -193390,129650z"/>
  <path class="fil4" d="M1353650 4399080l-4680 -83960 148010 -52630c-53150,-47670 -171440,-81950 -145530,-153820 36000,-99940 132620,-1200 218300,27380l-22800 -153890c-23720,31100 -17780,-6440 -23850,47020 -2780,24560 4390,36040 11710,62790 -48540,-25330 -56370,-63920 -119370,-58770 -79300,6480 -13740,41290 -122850,16540 26400,59350 27490,25630 30520,117910l-23910 11170c24310,60270 -51070,-5420 63450,25750 3180,860 9260,2470 13510,4620l-61640 7600 52600 70430c-48690,30580 -46830,13590 -61120,84190 27170,30580 2280,13650 47650,27670z"/>
  <path class="fil0" d="M2587980 4508270l-214100 88140c49130,73730 -44390,-14810 14830,18830 42170,23990 -25810,3530 33320,9740l67160 -7470 8810 55370 68960 23950c2070,1050 8350,8600 9810,5630 1470,-2990 6420,3970 9750,5730l89800 -61290 -17950 -95590c-11520,37240 -88060,86730 -151420,51420 99170,-43090 160880,-16700 158680,-138220 -31690,54230 -5790,43060 -77650,43760z"/>
  <path class="fil4" d="M2422030 4624980l78330 60280c31130,16950 59850,34750 86160,50180 4230,-2070 10440,-10080 12570,-6480l93230 -53280 1510 -262090 -105850 94680c71860,-700 45960,10470 77650,-43760 2200,121520 -59510,95130 -158680,138220 63360,35310 139900,-14180 151420,-51420l17950 95590 -89800 61290c-3330,-1760 -8280,-8720 -9750,-5730 -1460,2970 -7740,-4580 -9810,-5630l-68960 -23950 -8810 -55370 -67160 7470z"/>
  <path class="fil5" d="M4101410 3156360c-14930,-71580 -25720,-88340 -88220,-103980 15660,46710 40070,82350 88220,103980z"/>
 </g>
</svg>
